#!OML:ASF E:/inclinewalkrobotboard/Project1/Captureday1/Session1/subject1.ASF
:FULLY-SPECIFIED
:DEGREES
301
root 0 0 0 2.395143460114406 -3.9748932713786704 2.4454652761310793
lowerback 12.161928856600879 0.9603161504950561 -0.4122037350231522
upperback -4.1295155044810885 1.196936843134539 -0.7281326576831114
thorax -11.244866961160035 0.5505746196506913 -0.8129331510755857
lowerneck -7.059750110404498 1.4112238148265457 4.329937392597944
upperneck 19.04886227698362 2.8873373892335525 -8.226077330301205
head 7.1282554514274485 0.998762910728385 -3.1821761676690343
rclavicle -1.502486405773789E-15 -1.511697873751552E-15
rhumerus 17.622318644668937 13.53229317805866 -51.391996736039395
rradius 69.05697687621179
rwrist 23.72869774994996
rhand -32.984099862185545 -49.2020520167989
rfingers 7.125019999999964
rthumb -6.250881123390007 -79.25945732852895
lclavicle 4.96491703952842E-16 3.9816688414430087E-16
lhumerus 18.066916733004433 -14.018032108383512 49.46768548641096
lradius 67.52279821258902
lwrist -18.08365142053611
lhand -44.02742654223559 -60.445254383517316
lfingers 7.1250199999999575
lthumb -16.857870905581446 -31.01308793919385
rfemur -30.541942091951608 -0.2838516494766492 17.69990951119098
rtibia 45.734559471711506
rfoot -26.10531295159896 -17.30147620229441
rtoes -15.390752337875723
lfemur -25.2715813429223 3.184823226723849 -15.669384947077559
ltibia 48.4816624422404
lfoot -25.598482140239792 3.78422598847797
ltoes -14.760049538020532
302
root 0 0 0 2.650599346186593 -4.153553250023074 2.2750074978771826
lowerback 12.038531056650672 1.0770839418724303 -0.22349646076808838
upperback -4.1679446255625345 1.3724052924587218 -0.7574748941807231
thorax -11.196604330314338 0.6305094192527586 -0.9746715892477056
lowerneck -7.012891130632305 1.369422967678193 4.3082724592480925
upperneck 18.94440529536933 2.819976672706243 -8.133551028751064
head 7.0863562323907905 0.9761481113555187 -3.1524964971633738
rclavicle -1.5239443363631142E-15 -1.1981316713170237E-15
rhumerus 17.935755256256265 13.97819966228406 -51.69187902665358
rradius 69.30934544931853
rwrist 23.400310284060417
rhand -32.984216497509834 -49.12621276201184
rfingers 7.125019999999963
rthumb -6.2521140700643105 -79.17360187484601
lclavicle 6.826426718761515E-16 6.98553569414093E-16
lhumerus 18.028483452797666 -14.050015020482839 49.51591867775683
lradius 67.5065147355053
lwrist -18.03402156355575
lhand -44.00087560955691 -60.29904887611766
lfingers 7.1250199999999575
lthumb -16.831350811838604 -30.86330938574387
rfemur -27.22042440554838 0.7890756463610336 19.207272806731286
rtibia 39.27299880111231
rfoot -29.510217085991414 -17.410160381368765
rtoes -18.057415523666542
lfemur -24.606930075174077 2.059399583836006 -15.776857035929883
ltibia 40.374452088308736
lfoot -29.411402877417842 6.42534236889244
ltoes -17.052204571340486
303
root 0 0 0 2.8101779345695213 -4.260621451374351 2.172027292919311
lowerback 11.924555717507445 1.1544772544613862 -0.1147353342355788
upperback -4.190829791973584 1.4848893463328432 -0.7795834575537693
thorax -11.142455555661815 0.682487338051699 -1.0727703994322273
lowerneck -6.991648712666692 1.3293241397845932 4.280892594507359
upperneck 18.916980156425456 2.7574882070418036 -8.051674262344411
head 7.074661458583723 0.9529176478065907 -3.1260481678280065
rclavicle -1.4897825934015714E-15 -9.113012682714782E-16
rhumerus 17.995761120428973 14.095959192827555 -51.81525763173788
rradius 69.35620227635093
rwrist 23.27477201644217
rhand -32.96913201252744 -49.03695994394914
rfingers 7.125019999999963
rthumb -6.236915673096547 -79.08204152632598
lclavicle 8.241136408486655E-16 9.114298253201094E-16
lhumerus 17.891650045332355 -13.927056861839732 49.531457855319246
lradius 67.37797987722143
lwrist -18.057586745013225
lhand -43.961800894971454 -60.23095686961749
lfingers 7.125019999999957
lthumb -16.793697348369648 -30.78878254243128
rfemur -24.997463935065788 1.8460442363010765 20.174323999923327
rtibia 33.01061682963133
rfoot -30.67503805064343 -17.07182070118007
rtoes -20.017467395894105
lfemur -23.225203889139287 1.042539987271741 -15.777446146257947
ltibia 34.822472682606026
lfoot -29.841195423182718 7.0425212310027545
ltoes -18.57050455064587
304
root 0 0 0 2.8788114113521117 -4.289681179721091 2.1200257254387647
lowerback 11.838164478750222 1.1874482637004302 -0.06548028945097784
upperback -4.2043690528415425 1.531853119477079 -0.7888304150308872
thorax -11.099754147350795 0.7042036930764444 -1.1144541703057491
lowerneck -6.97971561968373 1.2968962879393813 4.264182843962501
upperneck 18.987120710245637 2.7087290165220503 -8.011928512172444
head 7.097052910545159 0.9322212012064043 -3.1150770909489607
rclavicle -1.3826792955699082E-15 -7.349088806151868E-16
rhumerus 17.78208184766632 13.842145342180762 -51.713927477733016
rradius 69.18320627952991
rwrist 23.39985776531346
rhand -32.94575902280457 -48.97255287838367
rfingers 7.125019999999962
rthumb -6.212213775474918 -79.02278540265327
lclavicle 9.058156740847014E-16 9.83552919846618E-16
lhumerus 17.676456430484784 -13.655724699669454 49.503154450223406
lradius 67.15357620004715
lwrist -18.162537428236973
lhand -43.917775005721694 -60.2720649542535
lfingers 7.125019999999956
lthumb -16.752150976510435 -30.821671620779885
rfemur -23.620446024743373 2.436651578216659 20.440341274329466
rtibia 29.87628503821202
rfoot -29.79975778716555 -16.472161264253387
rtoes -21.14792165566408
lfemur -21.766747334860128 0.2854583373971936 -15.547139490470249
ltibia 31.967240411513785
lfoot -27.990876920961703 6.320880781602136
ltoes -19.468509525091395
305
root 0 0 0 2.863979991769631 -4.277374338087252 2.121894869446428
lowerback 11.790162799368023 1.1909338825942575 -0.06654486587352504
upperback -4.214061355530956 1.5343586745208375 -0.7949287551822991
thorax -11.080401761249599 0.705516483387244 -1.1188712825478273
lowerneck -6.95666591568216 1.2749574489417792 4.262651964908816
upperneck 19.142246665777268 2.6775220975993728 -8.019583428446998
head 7.145960268851033 0.9162342076576439 -3.1213467395465297
rclavicle -1.1563834019663039E-15 -7.173748476102052E-16
rhumerus 17.38713805522292 13.330172040819468 -51.43894160690925
rradius 68.86483589844583
rwrist 23.7153241068493
rhand -32.92234310622847 -48.95234539248898
rfingers 7.125019999999962
rthumb -6.187208840025022 -79.01533955325041
lclavicle 9.724065087108459E-16 8.95817690354916E-16
lhumerus 17.437960696344497 -13.293017463335683 49.43047817323311
lradius 66.88543400952454
lwrist -18.33297122519945
lhand -43.88145200569306 -60.42890514160218
lfingers 7.125019999999955
lthumb -16.718494903161794 -30.972063666965393
rfemur -23.045885368061693 2.365201411872732 20.014821957513394
rtibia 31.018446303451533
rfoot -27.28644582629329 -15.729306579461486
rtoes -21.37890140107694
lfemur -20.405312424282187 -0.04114497552355034 -15.159889480602162
ltibia 32.284427124354465
lfoot -25.04529290135156 4.643823922803957
ltoes -20.14936128247755
306
root 0 0 0 2.76158455869565 -4.252249259824008 2.187495991157544
lowerback 11.790014664667096 1.176678819426209 -0.12068408095149563
upperback -4.218930787944518 1.507437883810303 -0.8059912387261227
thorax -11.089372581996656 0.6939815670891699 -1.094992601675858
lowerneck -6.917966057420764 1.267659714898299 4.2726642654431455
upperneck 19.33700205831434 2.669176764758924 -8.062749897984963
head 7.205505563191015 0.9083785402153178 -3.139357588433425
rclavicle -8.606895372133567E-16 -8.493411936647406E-16
rhumerus 16.92433030118974 12.708311012148942 -51.07175381613551
rradius 68.49217448693372
rwrist 24.128870209293087
rhand -32.90489465729273 -48.9791054415109
rfingers 7.125019999999962
rthumb -6.168483960837763 -79.06108037447943
lclavicle 1.0151272364666505E-15 6.835928613021399E-16
lhumerus 17.241427836497436 -12.92418983324147 49.324088024434374
lradius 66.64086760346949
lwrist -18.533435781920975
lhand -43.86479961746532 -60.680375948049885
lfingers 7.125019999999954
lthumb -16.703964039018725 -31.22082026936788
rfemur -23.72284188832944 1.5437594055166879 18.83412037453274
rtibia 36.84280967174164
rfoot -23.195896372570143 -14.924989255670077
rtoes -20.398157842759286
lfemur -19.210727079859534 0.2045658005502008 -14.74930553309413
ltibia 36.25464629018919
lfoot -21.607090162116517 2.1050804959238008
ltoes -20.734635356582658
307
root 0 0 0 2.559126110768409 -4.212163578225084 2.3287732286063494
lowerback 11.848594295235273 1.144116283719729 -0.24060136089938777
upperback -4.211693512844683 1.4489139024756632 -0.8231079028115568
thorax -11.1265331256534 0.6690637896726321 -1.0360999711551302
lowerneck -6.878461584412268 1.2810567621492066 4.287886408820082
upperneck 19.503099575649582 2.6914617613177843 -8.12263505286933
head 7.255191939938106 0.9134201501454168 -3.160793364531653
rclavicle -5.843014529914987E-16 -1.101835969418119E-15
rhumerus 16.48241583913439 12.094018917827055 -50.679043332482095
rradius 68.13635487745927
rwrist 24.56504591124476
rhand -32.89734000035617 -49.05182329499099
rfingers 7.125019999999962
rthumb -6.1601751274645 -79.1572683226664
lclavicle 1.0086132063395302E-15 3.851617998180598E-16
lhumerus 17.141344097712 -12.63081417703824 49.19945212365052
lradius 66.48119999724074
lwrist -18.725026416170856
lhand -43.87757238356835 -60.99718174929252
lfingers 7.125019999999954
lthumb -16.717656340341314 -31.53861245509191
rfemur -26.175373290221877 -0.009641570945192246 16.913769239261807
rtibia 47.05842256886228
rfoot -17.598144413883137 -14.104889371266681
rtoes -17.806180324770825
lfemur -18.217965910737963 1.1209169572990016 -14.41370186423734
ltibia 44.5513241960897
lfoot -17.71947845620175 -1.4393852325778134
ltoes -21.081105097953643
308
root 0 0 0 2.251932915759805 -4.122614746865085 2.5329543376507524
lowerback 11.971181662206764 1.0792126884993463 -0.4264494246631326
upperback -4.181182726311716 1.340627140818762 -0.8334033267862245
thorax -11.183900515295573 0.6221250474854851 -0.9254478006996054
lowerneck -6.874852408929659 1.3175359533560258 4.303096192224579
upperneck 19.586966592070024 2.747436826921356 -8.184739123692458
head 7.282791838436366 0.9335429441006818 -3.1798598004737464
rclavicle -4.4376258801317607E-16 -1.451737058056931E-15
rhumerus 16.127748496713416 11.579126051047654 -50.3207299100595
rradius 67.85071997513093
rwrist 24.957885381669037
rhand -32.9006298673359 -49.15786839049841
rfingers 7.125019999999963
rthumb -6.162980808367767 -79.2873496052444
lclavicle 8.904525921982264E-16 3.867276925371992E-17
lhumerus 17.17105769870367 -12.489722241104184 49.08300098068385
lradius 66.4540404723842
lwrist -18.86203783698045
lhand -43.92045655453445 -61.31648278780659
lfingers 7.125019999999955
lthumb -16.7601000311404 -31.861683022726535
rfemur -29.617636669012427 -1.439673844126764 15.29219419593251
rtibia 56.103583160936104
rfoot -12.478858755746534 -13.312785860229852
rtoes -14.115289445425267
lfemur -17.533788281096037 2.546077360971585 -14.372354760720974
ltibia 55.58169975240418
lfoot -13.223401650372784 -5.619439205885936
ltoes -20.23458037274934
